<?xml version="1.0" encoding="utf-8"?>
<!-- Generator: Adobe Illustrator 19.2.0, SVG Export Plug-In . SVG Version: 6.00 Build 0)  -->
<svg version="1.1" id="Layer_1" xmlns="http://www.w3.org/2000/svg" xmlns:xlink="http://www.w3.org/1999/xlink" x="0px" y="0px"
	 viewBox="0 0 36.5 45.3" style="enable-background:new 0 0 36.5 45.3;" xml:space="preserve">
<style type="text/css">
	.st0{fill:#999999;}
	.st1{fill:#666766;}
	.st2{fill:#787274;}
</style>
<path class="st0" d="M11.4,36.8l14.2-1.5l2.2,0.8l5.2-1.5c0,0-3.2-12.3-3-12.7S21,14.6,21,14.6l-5.9-6.1L3.3,16.6l3.9,20.3H11.4z"/>
<path class="st1" d="M5.2,26.8c1.2-0.5,7.4-0.8,8-1s5,1.6,4.9,1.5s7.6-1.4,7.9-1.5c0.4-0.1,4-4,4-4l3,12.7l-5.2,1.5l-2.2-0.8
	l-14.2,1.5H7.2L5.2,26.8z"/>
<polygon class="st2" points="15.2,8.5 25.2,11 30.2,21.8 21,14.6 "/>
</svg>
